<svg width="65" height="76" viewBox="0 0 65 76" fill="none" xmlns="http://www.w3.org/2000/svg">
<path d="M32 53.5C36.1421 53.5 39.5 50.1421 39.5 46C39.5 41.8579 36.1421 38.5 32 38.5C27.8579 38.5 24.5 41.8579 24.5 46C24.5 50.1421 27.8579 53.5 32 53.5Z" stroke="white" stroke-width="2" stroke-linecap="round" stroke-linejoin="round"/>
<path d="M49.5 33.5C52.2614 33.5 54.5 31.2614 54.5 28.5C54.5 25.7386 52.2614 23.5 49.5 23.5C46.7386 23.5 44.5 25.7386 44.5 28.5C44.5 31.2614 46.7386 33.5 49.5 33.5Z" stroke="white" stroke-width="2" stroke-linecap="round" stroke-linejoin="round"/>
<path d="M14.5 68.5C17.2614 68.5 19.5 66.2614 19.5 63.5C19.5 60.7386 17.2614 58.5 14.5 58.5C11.7386 58.5 9.5 60.7386 9.5 63.5C9.5 66.2614 11.7386 68.5 14.5 68.5Z" stroke="white" stroke-width="2" stroke-linecap="round" stroke-linejoin="round"/>
<path d="M28 70.75C32.8069 71.5398 37.7398 70.9081 42.1926 68.9324C46.6453 66.9568 50.4238 63.7233 53.0638 59.6293C55.7038 55.5353 57.0902 50.7593 57.0527 45.8881C57.0152 41.0169 55.5553 36.2627 52.8525 32.21" stroke="white" stroke-width="2" stroke-linecap="round" stroke-linejoin="round"/>
<path d="M35.75 21.25C30.9628 20.519 26.0662 21.1941 21.6554 23.1933C17.2446 25.1925 13.5094 28.4297 10.9036 32.5117C8.29785 36.5936 6.93375 41.3445 6.97704 46.187C7.02034 51.0296 8.46918 55.7553 11.1475 59.79" stroke="white" stroke-width="2" stroke-linecap="round" stroke-linejoin="round"/>
<path d="M1.02324 13C0.914909 13 0.860742 12.9458 0.860742 12.8375V4.498C0.860742 4.38967 0.914909 4.3355 1.02324 4.3355H4.71524C4.81924 4.3355 4.90591 4.37017 4.97524 4.4395L6.27524 5.7395C6.34891 5.81317 6.38574 5.89983 6.38574 5.9995V12.8375C6.38574 12.9458 6.33158 13 6.22324 13H4.38374C4.27541 13 4.22124 12.9458 4.22124 12.8375V6.0645H3.02524V12.8375C3.02524 12.9458 2.97108 13 2.86274 13H1.02324ZM12.0267 13C11.9834 13 11.9357 12.9935 11.8837 12.9805C11.8361 12.9675 11.7906 12.9567 11.7472 12.948L10.5902 12.662L9.26423 12.22C9.13423 12.1767 9.06923 12.051 9.06923 11.843V7.5205C9.06923 7.4165 9.10606 7.32983 9.17973 7.2605L10.4797 5.9605C10.5534 5.88683 10.6401 5.85 10.7397 5.85H12.8197C12.9194 5.85 13.0061 5.88683 13.0797 5.9605L14.3797 7.2605C14.4534 7.32983 14.4902 7.4165 14.4902 7.5205V10.1855H10.9997L10.9542 11.05L11.8772 11.3555L13.5347 11.4725C13.6084 11.4855 13.6452 11.5353 13.6452 11.622V12.8375C13.6452 12.9458 13.5911 13 13.4827 13H12.0267ZM11.7667 9.165H11.8902C12.1026 9.165 12.2716 9.08483 12.3972 8.9245C12.5272 8.76417 12.5922 8.5475 12.5922 8.2745V8.1445C12.5922 7.87583 12.5272 7.66133 12.3972 7.501C12.2716 7.34067 12.1026 7.2605 11.8902 7.2605H11.7602C11.5522 7.2605 11.3854 7.34067 11.2597 7.501C11.1384 7.66133 11.0777 7.87583 11.0777 8.1445V8.2745C11.0777 8.5475 11.1384 8.76417 11.2597 8.9245C11.3854 9.08483 11.5544 9.165 11.7667 9.165ZM18.6837 13C18.5797 13 18.4931 12.9632 18.4237 12.8895L17.1237 11.5895C17.0501 11.5202 17.0132 11.4335 17.0132 11.3295V6.0125C17.0132 5.90417 17.0674 5.85 17.1757 5.85H18.9112C19.0196 5.85 19.0737 5.90417 19.0737 6.0125V11.0695C19.0737 11.2732 19.1734 11.375 19.3727 11.375H20.2632V6.0125C20.2632 5.90417 20.3174 5.85 20.4257 5.85H22.1612C22.2696 5.85 22.3237 5.90417 22.3237 6.0125V12.8375C22.3237 12.9458 22.2696 13 22.1612 13H18.6837ZM25.1758 13C25.0675 13 25.0133 12.9458 25.0133 12.8375V6.0125C25.0133 5.90417 25.0675 5.85 25.1758 5.85H26.1638C26.2462 5.85 26.3177 5.88683 26.3783 5.9605L27.0153 6.695L27.7238 5.928C27.7715 5.876 27.8322 5.85 27.9058 5.85H28.6078C28.7162 5.85 28.7703 5.90417 28.7703 6.0125V7.41C28.7703 7.47933 28.766 7.527 28.7573 7.553C28.7487 7.57467 28.7248 7.5985 28.6858 7.6245L27.0738 8.814V12.8375C27.0738 12.9458 27.0197 13 26.9113 13H25.1758ZM32.3405 13C32.2409 13 32.1542 12.9632 32.0805 12.8895L30.7805 11.5895C30.7069 11.5202 30.67 11.4335 30.67 11.3295V7.5205C30.67 7.4165 30.7069 7.32983 30.7805 7.2605L32.0805 5.9605C32.1542 5.88683 32.2409 5.85 32.3405 5.85H34.31C34.414 5.85 34.5007 5.88683 34.57 5.9605L35.87 7.2605C35.9437 7.32983 35.9805 7.4165 35.9805 7.5205V11.3295C35.9805 11.4335 35.9437 11.5202 35.87 11.5895L34.57 12.8895C34.5007 12.9632 34.414 13 34.31 13H32.3405ZM33.101 11.4855H33.556C33.6947 11.4855 33.79 11.4573 33.842 11.401C33.894 11.3447 33.92 11.245 33.92 11.102V7.748C33.92 7.605 33.894 7.50533 33.842 7.449C33.79 7.39267 33.6947 7.3645 33.556 7.3645H33.101C32.958 7.3645 32.8605 7.39267 32.8085 7.449C32.7565 7.50533 32.7305 7.605 32.7305 7.748V11.102C32.7305 11.245 32.7565 11.3447 32.8085 11.401C32.8605 11.4573 32.958 11.4855 33.101 11.4855ZM38.6323 13C38.524 13 38.4698 12.9458 38.4698 12.8375V11.6155C38.4698 11.5592 38.472 11.5137 38.4763 11.479C38.485 11.4443 38.511 11.4162 38.5543 11.3945L40.2573 10.6145V9.4575L38.5803 8.4175C38.5067 8.37417 38.4698 8.30917 38.4698 8.2225V5.837C38.4698 5.76767 38.4742 5.71783 38.4828 5.6875C38.4915 5.65283 38.524 5.616 38.5803 5.577L40.2898 4.42C40.3332 4.394 40.3722 4.3745 40.4068 4.3615C40.4458 4.34417 40.4935 4.3355 40.5498 4.3355H42.3048C42.4132 4.3355 42.4673 4.38967 42.4673 4.498V5.603C42.4673 5.69833 42.4348 5.76333 42.3698 5.798L40.6668 6.5V7.7025L42.3698 8.6775C42.4348 8.70783 42.4673 8.77717 42.4673 8.8855V11.713C42.4673 11.7477 42.4608 11.7845 42.4478 11.8235C42.4392 11.8625 42.4175 11.8907 42.3828 11.908L40.3418 12.922C40.3158 12.935 40.2833 12.9523 40.2443 12.974C40.2097 12.9913 40.175 13 40.1403 13H38.6323ZM46.8738 15.1645C46.7655 15.1645 46.7113 15.1103 46.7113 15.002V13.988C46.7113 13.9057 46.7438 13.858 46.8088 13.845L47.7643 13.6045L48.4338 13.247C48.4988 13.2123 48.5313 13.1452 48.5313 13.0455V11.9795L47.9268 12.545C47.8532 12.6187 47.7665 12.6555 47.6668 12.6555L46.5618 12.6945C46.4622 12.6945 46.3755 12.6598 46.3018 12.5905L45.1123 11.3945C45.0387 11.3252 45.0018 11.2385 45.0018 11.1345V6.0125C45.0018 5.90417 45.056 5.85 45.1643 5.85H46.8998C47.0082 5.85 47.0623 5.90417 47.0623 6.0125V10.907C47.0623 11.05 47.0883 11.1497 47.1403 11.206C47.1923 11.2623 47.2877 11.2905 47.4263 11.2905H48.2518V6.0125C48.2518 5.90417 48.306 5.85 48.4143 5.85H50.1498C50.2582 5.85 50.3123 5.90417 50.3123 6.0125V13.8255C50.3123 13.9555 50.2755 14.0422 50.2018 14.0855L49.3373 14.638L48.2388 15.093C48.1738 15.119 48.124 15.1363 48.0893 15.145C48.059 15.158 48.0092 15.1645 47.9398 15.1645H46.8738ZM53.1644 13C53.0561 13 53.0019 12.9458 53.0019 12.8375V6.0125C53.0019 5.90417 53.0561 5.85 53.1644 5.85H56.6419C56.7416 5.85 56.8282 5.88683 56.9019 5.9605L58.2019 7.2605C58.2756 7.32983 58.3124 7.4165 58.3124 7.5205V12.8375C58.3124 12.9458 58.2582 13 58.1499 13H56.4144C56.3061 13 56.2519 12.9458 56.2519 12.8375V7.7805C56.2519 7.57683 56.1501 7.475 55.9464 7.475H55.0624V12.8375C55.0624 12.9458 55.0082 13 54.8999 13H53.1644ZM63.1145 13C63.0278 13 62.9412 12.9718 62.8545 12.9155L61.795 12.2005L61.067 11.0305C61.0367 10.9742 61.0107 10.9373 60.989 10.92C60.9673 10.8983 60.9565 10.855 60.9565 10.79V8.06C60.9565 7.995 60.9652 7.95167 60.9825 7.93C60.9998 7.90833 61.028 7.86933 61.067 7.813L61.73 6.708L62.8545 5.9345C62.8935 5.9085 62.9325 5.889 62.9715 5.876C63.0105 5.85867 63.0582 5.85 63.1145 5.85H64.239C64.3473 5.85 64.4015 5.90417 64.4015 6.0125V7.228C64.4015 7.26267 64.3972 7.2995 64.3885 7.3385C64.3842 7.3775 64.3647 7.40783 64.33 7.4295L63.589 7.8L63.017 8.5475V10.283L63.6215 10.972L64.33 11.4205C64.3733 11.4465 64.395 11.479 64.395 11.518C64.3993 11.5527 64.4015 11.5873 64.4015 11.622V12.8375C64.4015 12.9458 64.3473 13 64.239 13H63.1145Z" fill="white"/>
</svg>
