<svg width="60" height="70" viewBox="0 0 60 70" fill="none" xmlns="http://www.w3.org/2000/svg">
<path d="M38.09 55C39.0503 53.9266 39.6812 52.5994 39.9073 51.177C40.1334 49.7546 39.9452 48.2972 39.3652 46.9789C38.7852 45.6606 37.8378 44.5373 36.6364 43.743C35.4349 42.9487 34.0302 42.5172 32.59 42.5" stroke="white" stroke-width="2" stroke-linecap="round" stroke-linejoin="round"/>
<path d="M40 50C40 48.0109 40.7902 46.1032 42.1967 44.6967C43.6032 43.2902 45.5109 42.5 47.5 42.5H50C51.3261 42.5 52.5979 41.9732 53.5355 41.0355C54.4732 40.0979 55 38.8261 55 37.5V32.5C55 29.8478 53.9464 27.3043 52.0711 25.4289C50.1957 23.5536 47.6522 22.5 45 22.5V10" stroke="white" stroke-width="2" stroke-linecap="round" stroke-linejoin="round"/>
<path d="M45 32.5H45.025" stroke="white" stroke-width="2" stroke-linecap="round" stroke-linejoin="round"/>
<path d="M45 15C42.3478 15 39.8043 16.0536 37.9289 17.9289C36.0536 19.8043 35 22.3478 35 25C30.3587 25 25.9075 26.8437 22.6256 30.1256C19.3437 33.4075 17.5 37.8587 17.5 42.5C17.5 30 27.5 30 27.5 16.25C27.5 14.7726 27.209 13.3097 26.6436 11.9448C26.0783 10.5799 25.2496 9.33971 24.205 8.29505C23.1603 7.25039 21.9201 6.42172 20.5552 5.85636C19.1903 5.29099 17.7274 5 16.25 5C14.7726 5 13.3097 5.29099 11.9448 5.85636C10.5799 6.42172 9.33971 7.25039 8.29505 8.29505C7.25039 9.33971 6.42172 10.5799 5.85636 11.9448C5.29099 13.3097 5 14.7726 5 16.25C5 17.9076 5.65848 19.4973 6.83058 20.6694C8.00269 21.8415 9.5924 22.5 11.25 22.5C12.9076 22.5 14.4973 21.8415 15.6694 20.6694C16.8415 19.4973 17.5 17.9076 17.5 16.25C17.5 25 7.5 27.5 7.5 42.5C7.5 49.5 13 55 20 55H45" stroke="white" stroke-width="2" stroke-linecap="round" stroke-linejoin="round"/>
<path d="M9.16621 67.013C9.07088 67.0693 8.98422 67.0888 8.90622 67.0715C8.82822 67.0542 8.75888 67 8.69822 66.909L6.56622 63.516H4.18072V66.6555C4.18072 66.8852 4.06805 67 3.84271 67C3.61305 67 3.49821 66.8852 3.49821 66.6555V58.966C3.49821 58.7363 3.61305 58.6215 3.84271 58.6215H6.88471C7.62572 58.6215 8.18472 58.8122 8.56171 59.1935C8.94305 59.5748 9.13371 60.136 9.13371 60.877V61.267C9.13371 61.9213 8.98422 62.4348 8.68522 62.8075C8.38622 63.1802 7.94422 63.4077 7.35921 63.49L9.27672 66.545C9.39805 66.7443 9.36122 66.9003 9.16621 67.013ZM4.18072 62.8335H6.88471C7.43072 62.8335 7.82722 62.71 8.07422 62.463C8.32555 62.2117 8.45122 61.813 8.45122 61.267V60.877C8.45122 60.3267 8.32555 59.928 8.07422 59.681C7.82722 59.4297 7.43072 59.304 6.88471 59.304H4.18072V62.8335ZM13.3753 67C12.5649 67 11.9713 66.8137 11.5943 66.441C11.2173 66.064 11.0288 65.4725 11.0288 64.6665V63.1975C11.0288 62.3785 11.2173 61.7827 11.5943 61.41C11.9713 61.033 12.5649 60.8488 13.3753 60.8575H14.4413C15.2516 60.8575 15.8431 61.046 16.2158 61.423C16.5928 61.7957 16.7813 62.3872 16.7813 63.1975V64.6535C16.7813 65.4638 16.5928 66.0575 16.2158 66.4345C15.8431 66.8115 15.2516 67 14.4413 67H13.3753ZM11.7113 64.6665C11.7113 65.2775 11.8326 65.7065 12.0753 65.9535C12.3223 66.1962 12.7556 66.3175 13.3753 66.3175H14.4413C15.0609 66.3175 15.4921 66.1962 15.7348 65.9535C15.9774 65.7065 16.0988 65.2732 16.0988 64.6535V63.1975C16.0988 62.5778 15.9774 62.1467 15.7348 61.904C15.4921 61.6613 15.0609 61.54 14.4413 61.54H13.3753C12.9593 61.5357 12.6299 61.5855 12.3873 61.6895C12.1446 61.7935 11.9713 61.9668 11.8673 62.2095C11.7633 62.4522 11.7113 62.7815 11.7113 63.1975V64.6665ZM21.2083 67C20.3979 67 19.8043 66.8115 19.4273 66.4345C19.0503 66.0575 18.8618 65.4638 18.8618 64.6535V63.1845C18.8618 62.3742 19.0481 61.7827 19.4208 61.41C19.7978 61.033 20.3936 60.8488 21.2083 60.8575H22.2743C22.9113 60.8575 23.3966 60.9658 23.7303 61.1825C24.0683 61.3948 24.2698 61.7307 24.3348 62.19C24.3478 62.307 24.3218 62.3958 24.2568 62.4565C24.1961 62.5172 24.1094 62.5475 23.9968 62.5475C23.8928 62.5475 23.8148 62.5215 23.7628 62.4695C23.7108 62.4132 23.6718 62.333 23.6458 62.229C23.5981 61.9777 23.4703 61.8 23.2623 61.696C23.0543 61.592 22.7249 61.54 22.2743 61.54H21.2083C20.5886 61.5313 20.1553 61.6483 19.9083 61.891C19.6656 62.1293 19.5443 62.5605 19.5443 63.1845V64.6535C19.5443 65.2732 19.6656 65.7065 19.9083 65.9535C20.1553 66.1962 20.5886 66.3175 21.2083 66.3175H22.2743C22.7249 66.3175 23.0543 66.2655 23.2623 66.1615C23.4703 66.0575 23.5981 65.8777 23.6458 65.622C23.6718 65.518 23.7108 65.44 23.7628 65.388C23.8148 65.3317 23.8928 65.3035 23.9968 65.3035C24.1094 65.3035 24.1961 65.336 24.2568 65.401C24.3218 65.4617 24.3478 65.5483 24.3348 65.661C24.2698 66.1203 24.0683 66.4583 23.7303 66.675C23.3966 66.8917 22.9113 67 22.2743 67H21.2083ZM26.8085 67C26.5789 67 26.464 66.8852 26.464 66.6555V58.3225C26.464 58.0972 26.5789 57.9845 26.8085 57.9845C27.0339 57.9845 27.1465 58.0972 27.1465 58.3225V63.724L30.4485 60.89C30.6132 60.7427 30.7714 60.7535 30.923 60.9225C31.0704 61.0915 31.0595 61.2518 30.8905 61.4035L28.4985 63.464L31.0985 66.415C31.2502 66.584 31.2394 66.7443 31.066 66.896C30.9014 67.0433 30.7432 67.0325 30.5915 66.8635L27.972 63.9125L27.1465 64.621V66.6555C27.1465 66.8852 27.0339 67 26.8085 67ZM34.0302 67C33.8266 67 33.6944 66.9068 33.6337 66.7205L31.8007 61.319C31.7271 61.098 31.7986 60.9528 32.0152 60.8835C32.2276 60.8185 32.3684 60.89 32.4377 61.098L34.2187 66.3175H33.9457L35.6487 61.1955C35.7094 61.0135 35.8394 60.9225 36.0387 60.9225C36.2294 60.9225 36.3529 61.0157 36.4092 61.202L38.0017 66.3045H37.7157L39.5877 61.098C39.6744 60.877 39.8217 60.8055 40.0297 60.8835C40.2464 60.9658 40.3157 61.1132 40.2377 61.3255L38.2292 66.7205C38.1599 66.9068 38.0256 67 37.8262 67C37.6052 67 37.4666 66.9068 37.4102 66.7205L35.9347 61.995H36.0647L34.4397 66.7205C34.4051 66.8288 34.3509 66.9025 34.2772 66.9415C34.2036 66.9805 34.1212 67 34.0302 67ZM42.0404 64.192V64.6665C42.0404 65.2775 42.1617 65.7065 42.4044 65.9535C42.6514 66.1962 43.0847 66.3175 43.7044 66.3175H44.7704C45.3164 66.3175 45.7129 66.2482 45.9599 66.1095C46.2112 65.9665 46.3607 65.7217 46.4084 65.375C46.4257 65.2667 46.4604 65.1843 46.5124 65.128C46.5687 65.0717 46.6532 65.0435 46.7659 65.0435C46.8785 65.0435 46.963 65.076 47.0194 65.141C47.08 65.2017 47.1039 65.2883 47.0909 65.401C47.0345 65.947 46.8157 66.35 46.4344 66.61C46.053 66.87 45.4984 67 44.7704 67H43.7044C42.894 67 42.3004 66.8137 41.9234 66.441C41.5464 66.064 41.3579 65.4725 41.3579 64.6665V63.1975C41.3579 62.3785 41.5464 61.7827 41.9234 61.41C42.3004 61.033 42.894 60.8488 43.7044 60.8575H44.7704C45.5807 60.8575 46.1722 61.046 46.5449 61.423C46.9219 61.7957 47.1104 62.3872 47.1104 63.1975V63.8475C47.1104 64.0772 46.9977 64.192 46.7724 64.192H42.0404ZM43.7044 61.54C43.0847 61.5313 42.6514 61.6505 42.4044 61.8975C42.1617 62.1402 42.0404 62.5735 42.0404 63.1975V63.5095H46.4279V63.1975C46.4279 62.5778 46.3065 62.1467 46.0639 61.904C45.8212 61.6613 45.39 61.54 44.7704 61.54H43.7044ZM51.1539 67C50.5385 67 50.0857 66.857 49.7954 66.571C49.5094 66.285 49.3664 65.8365 49.3664 65.2255V58.3225C49.3664 58.0972 49.4812 57.9845 49.7109 57.9845C49.9362 57.9845 50.0489 58.0972 50.0489 58.3225V65.2255C50.0489 65.6458 50.1269 65.934 50.2829 66.09C50.4389 66.2417 50.727 66.3175 51.1474 66.3175C51.3814 66.3175 51.4984 66.4302 51.4984 66.6555C51.5027 66.8852 51.3879 67 51.1539 67ZM54.9371 67C54.3217 67 53.8689 66.857 53.5786 66.571C53.2926 66.285 53.1496 65.8365 53.1496 65.2255V58.3225C53.1496 58.0972 53.2644 57.9845 53.4941 57.9845C53.7194 57.9845 53.8321 58.0972 53.8321 58.3225V65.2255C53.8321 65.6458 53.9101 65.934 54.0661 66.09C54.2221 66.2417 54.5102 66.3175 54.9306 66.3175C55.1646 66.3175 55.2816 66.4302 55.2816 66.6555C55.2859 66.8852 55.1711 67 54.9371 67Z" fill="white"/>
</svg>
